#!OML:ASF E:\motion texture\Top Level 1\Subject 1\Session 1\male.ASF
:FULLY-SPECIFIED
:DEGREES
243
root -3.49955 17.5502 5.51953 471.19 -80.2055 -462.367
lowerback -2.38218 1.88258 7.8274
upperback -2.21521 2.31585 2.19736
thorax -0.734841 1.04219 -2.0664
lowerneck -8.00859 -8.2202 -11.5305
upperneck 20.831 -10.114 0.870307
head 8.47015 -5.7252 1.12559
rclavicle 3.44146e-015 -1.94809e-014
rhumerus -23.1275 -8.36009 -81.9717
rradius 71.8224
rwrist -17.836
rhand -18.0147 -42.5545
rfingers 7.12502
rthumb 8.25616 -72.3732
lclavicle 3.44146e-015 -1.94809e-014
lhumerus -34.0134 7.06703 85.569
lradius 86.858
lwrist 27.6402
lhand -15.0791 47.8469
lfingers 7.12502
lthumb 11.0884 77.5339
rfemur 1.89544 4.99728 35.4616
rtibia 22.2483
rfoot -17.8713 -12.5978
rtoes -8.75668
lfemur -34.1809 -1.07747 -3.57565
ltibia 17.4572
lfoot -2.9325 6.26001
ltoes -17.3367
244
root -3.67796 17.5371 5.52551 471.443 -80.4878 -462.813
lowerback -2.27404 1.86223 7.50743
upperback -2.14395 2.30754 2.05855
thorax -0.727946 1.04631 -2.03512
lowerneck -7.93038 -8.29957 -11.588
upperneck 20.7617 -10.2495 1.00152
head 8.45153 -5.77925 1.16665
rclavicle -5.76476e-015 -4.96962e-015
rhumerus -23.3676 -8.2266 -82.2474
rradius 71.7426
rwrist -17.6196
rhand -18.2236 -42.6923
rfingers 7.12502
rthumb 8.05458 -72.5189
lclavicle -5.76476e-015 -4.96962e-015
lhumerus -33.9104 6.90118 85.8702
lradius 86.63
lwrist 26.8739
lhand -15.106 47.7541
lfingers 7.12502
lthumb 11.0625 77.4426
rfemur 1.9613 5.05534 35.1535
rtibia 23.6587
rfoot -17.7919 -12.6792
rtoes -10.4816
lfemur -34.349 -1.44006 -4.06642
ltibia 18.9216
lfoot -2.07772 6.03516
ltoes -16.6023
245
root -3.85858 17.528 5.53094 471.92 -80.873 -463.492
lowerback -2.19572 1.83856 7.06463
upperback -2.06402 2.29366 1.88966
thorax -0.69902 1.05009 -1.9655
lowerneck -7.83967 -8.38793 -11.6106
upperneck 20.6855 -10.4005 1.11331
head 8.4264 -5.83995 1.19491
rclavicle 4.09993e-016 2.82274e-014
rhumerus -23.6119 -8.07275 -82.5358
rradius 71.6269
rwrist -17.3683
rhand -18.4921 -42.8495
rfingers 7.12502
rthumb 7.79541 -72.6858
lclavicle 4.09993e-016 2.82274e-014
lhumerus -33.7767 6.71163 86.1968
lradius 86.3819
lwrist 26.1592
lhand -15.1996 47.7159
lfingers 7.12502
lthumb 10.9723 77.4092
rfemur 1.93633 5.06847 34.7057
rtibia 25.2156
rfoot -17.5728 -12.7167
rtoes -12.0942
lfemur -34.4889 -1.82922 -4.66653
ltibia 20.3629
lfoot -1.42147 5.78416
ltoes -15.5955
246
root -4.04154 17.5231 5.53603 472.528 -81.3087 -464.309
lowerback -2.13816 1.81215 6.56584
upperback -1.98629 2.27478 1.70308
thorax -0.662525 1.05174 -1.88199
lowerneck -7.72146 -8.48031 -11.6059
upperneck 20.6013 -10.5627 1.21277
head 8.39215 -5.90552 1.21516
rclavicle -9.96408e-015 -1.98785e-014
rhumerus -23.8831 -7.88413 -82.8411
rradius 71.4702
rwrist -17.0653
rhand -18.8092 -43.0155
rfingers 7.12502
rthumb 7.48931 -72.8629
lclavicle -9.96408e-015 -1.98785e-014
lhumerus -33.6386 6.51968 86.5301
lradius 86.1148
lwrist 25.4627
lhand -15.2273 47.6539
lfingers 7.12502
lthumb 10.9456 77.3486
rfemur 1.81292 5.00452 34.1679
rtibia 26.9201
rfoot -17.1947 -12.6806
rtoes -13.5391
lfemur -34.5721 -2.1725 -5.34003
ltibia 21.755
lfoot -0.97603 5.48484
ltoes -14.2138
247
root -4.22723 17.5218 5.54147 473.087 -81.7274 -465.087
lowerback -2.10957 1.78124 6.0983
upperback -1.90773 2.24594 1.5174
thorax -0.608719 1.04775 -1.8136
lowerneck -7.59322 -8.56983 -11.597
upperneck 20.5242 -10.7256 1.32236
head 8.35903 -5.97095 1.23842
rclavicle 1.30577e-014 1.59028e-015
rhumerus -24.1802 -7.63818 -83.1681
rradius 71.2722
rwrist -16.7006
rhand -19.1248 -43.1926
rfingers 7.12502
rthumb 7.18464 -73.0506
lclavicle 1.30577e-014 1.59028e-015
lhumerus -33.507 6.32198 86.8701
lradius 85.8422
lwrist 24.8221
lhand -14.9895 47.4303
lfingers 7.12502
lthumb 11.1748 77.1128
rfemur 1.5851 4.82144 33.6053
rtibia 28.776
rfoot -16.6361 -12.5409
rtoes -14.7678
lfemur -34.5613 -2.41554 -6.02836
ltibia 23.0608
lfoot -0.663453 5.08744
ltoes -12.6121
